<svg width="250" height="250" viewBox="0 0 250 250" fill="none" xmlns="http://www.w3.org/2000/svg">
<g clip-path="url(#clip0_6_66)">
<rect width="250" height="250" rx="125" fill="#A18CD1"/>
<path fill-rule="evenodd" clip-rule="evenodd" d="M111.04 0.774255C69.3618 5.60961 32.0173 31.7439 13.1059 69.3105C-13.4372 122.034 1.3479 186.789 48.3119 223.512C102.703 266.041 180.782 256.336 223.487 201.737C270.523 141.599 253.057 54.5231 186.28 16.2478C163.923 3.43424 136.583 -2.18885 111.04 0.774255ZM200.734 52.1789C200.651 53.5747 200.529 87.6936 200.464 128L200.347 201.284H182.414H164.479L144.072 180.864C132.847 169.633 123.256 160.444 122.756 160.444C122.257 160.444 112.619 169.666 101.338 180.937L80.8284 201.429L65.2509 201.583L49.6734 201.737V199.463C49.6734 197.69 55.7757 191.089 77.352 169.525L105.031 141.862L96.2063 133.005L87.3818 124.148L81.2351 130.247L75.0883 136.346V145.458V154.57L62.3808 167.251L49.6734 179.932V114.375V48.8174H62.3808H75.0883V74.449V100.081L100.736 74.449L126.384 48.8174H144.526H162.668L134.085 77.4066L105.503 105.996L140.691 141.161L175.88 176.326L175.798 142.049L175.717 107.772L173.282 109.542C171.944 110.514 165.954 116.24 159.971 122.263L149.095 133.217L140.223 124.38L131.351 115.543L165.124 81.7664C187.653 59.2359 199.228 48.2647 199.892 48.8156C200.439 49.2703 200.818 50.7831 200.734 52.1789Z" fill="#1C202B"/>
</g>
<defs>
<clipPath id="clip0_6_66">
<rect width="250" height="250" rx="125" fill="white"/>
</clipPath>
</defs>
</svg>
